<svg xmlns="http://www.w3.org/2000/svg" xmlns:xlink="http://www.w3.org/1999/xlink" width="96" zoomAndPan="magnify" viewBox="0 0 72 72" height="96" preserveAspectRatio="xMidYMid meet" version="1.0"><defs><g/></defs><rect x="-7.2" width="86.4" fill="#ffffff" y="-7.2" height="86.4" fill-opacity="1"/><rect x="-7.2" width="86.4" fill="#000000" y="-7.2" height="86.4" fill-opacity="1"/><g fill="#ffffff" fill-opacity="1"><g transform="translate(11.351074, 54.070312)"><g><path d="M 2.269531 -0.726562 C 2.269531 -0.273438 2.542969 0 2.996094 0 L 7.714844 0 C 8.214844 0 8.441406 -0.273438 8.441406 -0.726562 L 8.441406 -12.164062 L 13.890625 -12.164062 C 18.15625 -12.164062 20.425781 -14.480469 20.425781 -18.703125 L 20.425781 -29.777344 C 20.425781 -34.042969 18.15625 -36.3125 13.890625 -36.3125 L 2.996094 -36.3125 C 2.542969 -36.3125 2.269531 -36.042969 2.269531 -35.585938 Z M 8.441406 -18.15625 L 8.441406 -30.320312 L 12.4375 -30.320312 C 13.664062 -30.320312 14.253906 -29.6875 14.253906 -28.507812 L 14.253906 -19.972656 C 14.253906 -18.835938 13.664062 -18.15625 12.4375 -18.15625 Z M 8.441406 -18.15625 "/></g></g></g><g fill="#ffffff" fill-opacity="1"><g transform="translate(34.047202, 54.070312)"><g><path d="M 24.148438 0 C 24.695312 0 24.875 -0.273438 24.785156 -0.773438 L 17.25 -35.679688 C 17.160156 -36.132812 16.886719 -36.3125 16.476562 -36.3125 L 10.167969 -36.3125 C 9.757812 -36.3125 9.488281 -36.132812 9.394531 -35.679688 L 1.859375 -0.773438 C 1.726562 -0.273438 1.953125 0 2.453125 0 L 7.308594 0 C 7.714844 0 7.945312 -0.226562 8.035156 -0.636719 L 9.261719 -7.261719 L 17.339844 -7.261719 L 18.609375 -0.636719 C 18.703125 -0.226562 18.929688 0 19.335938 0 Z M 16.203125 -12.527344 L 10.394531 -12.527344 L 13.300781 -28.371094 Z M 16.203125 -12.527344 "/></g></g></g></svg>